<svg width="1502" height="1502" viewBox="0 0 1502 1502" fill="none" xmlns="http://www.w3.org/2000/svg">
<circle cx="751" cy="751" r="751" fill="#FBB72D"/>
<path d="M1283.26 757.556H1192.26V947.056L1303.76 895.556L1335.76 846.056L1329.26 795.556L1283.26 757.556Z" fill="#7C7475" stroke="black"/>
<path d="M176.756 735.556H267.756V925.056L156.256 873.556L124.256 824.056L130.756 773.556L176.756 735.556Z" fill="#7C7475" stroke="black"/>
<path d="M1110.26 798.555L1100.26 1030.05C1093.26 1050.22 1076.96 1088.25 1067.76 1079.05L942.756 1143.55L826.256 1156.55L694.756 1166.05L529.256 1143.55L430.256 1110.55L369.756 1030.05L331.756 713.055L502.756 412.555L753.756 384.555L1013.26 429.055L1110.26 598.055V798.555Z" fill="white" stroke="black"/>
<ellipse cx="657.756" cy="1158.56" rx="76.5" ry="42" fill="#FBB72D"/>
<ellipse cx="862.756" cy="1158.56" rx="77.5" ry="42" fill="#FBB72D"/>
<ellipse cx="753.756" cy="716.056" rx="56.5" ry="58.5" fill="#FBB72D"/>
<path d="M1044.26 895.555L1100.26 1051.55L1171.76 983.055C1208.76 896.055 1184.26 721.055 1153.26 596.555C1122.26 472.055 978.756 366.055 953.756 331.555C933.756 303.955 808.423 284.721 748.256 278.555L648.756 294.555L523.756 331.555L374.256 484.555L284.256 771.055L318.256 1001.55C351.423 1044.05 417.756 1117.25 417.756 1070.05C417.756 1022.85 455.423 867.721 474.256 796.055C414.656 698.855 411.756 591.555 417.756 550.055C497.356 413.255 671.256 449.388 748.256 484.555C792.923 471.055 887.256 444.055 907.256 444.055C932.256 444.055 1006.76 465.555 1065.76 550.055C1112.96 617.655 1071.09 692.221 1044.26 721.055L1006.76 821.055L1044.26 895.555Z" fill="#7C7475"/>
<path d="M1097.82 1025.46C1100.32 1027.05 1103.57 1024.95 1105.48 1022.81C1221.12 889.862 1144.22 614.812 1069.74 475.13C1067.24 468.577 1070.9 460.094 1076.46 456.647C1089.65 449.909 1102.32 472.719 1108.68 481.457C1138.78 528.211 1158.15 588.3 1171.6 642.147C1176.98 666.687 1183.36 703.285 1189.19 724.945C1191.26 731.953 1191.56 735.357 1194.68 738.095C1209.29 745.159 1260.8 737.684 1282.66 743.173C1320.19 749.301 1357.67 769.643 1361.47 808.652C1362.22 816.454 1361.61 824.866 1359.47 833.859C1339.64 913.112 1249.12 951.738 1177.72 973.938C1174.44 974.888 1172.34 977.058 1170.79 980.108C1132.66 1058.93 1071.14 1122.12 984.499 1144C975.789 1147.25 957.604 1152.76 952.838 1160.27C949.462 1178.33 940.185 1193.38 923.616 1202.19C920.552 1203.89 917.644 1204.56 914.368 1204.59C885.256 1210.06 882.756 1208.47 821.767 1208.47C810.126 1206.94 799.536 1203.71 791.013 1197.75C783.254 1192.79 778.346 1183.51 771.807 1177.21C766.459 1171.68 754.444 1170.81 748.926 1176.5C742.571 1183.45 745.256 1196.06 733.256 1201.56C710.867 1209.06 675.58 1207.78 639.885 1207.78C610.256 1207.78 603.4 1209.58 588.279 1199.42C568.746 1185.49 574.051 1164.53 552.618 1160.43C535.61 1155.29 513.991 1151.75 496.558 1147.79C419.717 1128.91 359.118 1087.73 316.406 1021.37C304.321 1004.92 299.327 979.413 284.39 964.277C265.567 952.206 236.813 943.028 214.954 932.602C171.547 911.764 125.134 873.265 112.367 824.596C109.587 813.007 109.147 800.552 111.629 788.85C120.183 753.287 170.384 732.279 204.57 730.435C222.997 730.194 247.239 732.194 264.432 729.499C271.794 728.151 276.206 727.116 279.184 722.676C280.901 719.47 282.972 712.235 285.341 702.873C323.584 491.146 455.407 288.227 685.462 263.984C803.184 252.097 945.688 293.816 1026.94 383.792C1032.02 390.743 1034.43 400.119 1028.13 406.73C1014.02 420.503 988.584 390.771 977.662 380.913C838.179 260.126 613.358 267.914 477.734 392.02C338.223 513.757 239.707 851.165 350.706 1011.44C359.884 1025.02 373.331 1041.49 384.155 1052.48C386.722 1054.52 387.942 1056.62 390.283 1056.42C399.063 1045.3 397.191 1015.51 400.07 1001C410.922 934.63 448.201 884.429 458.485 825.532C465.223 779.218 440.229 748.308 417.731 712.76C405.517 693.511 394.765 671.694 392.566 647.948C375.161 482.464 567.838 368.373 710.64 441.994C721.137 446.632 731.62 451.526 742.486 456.151C743.905 456.732 745.451 457.271 746.954 457.271C920.325 354.386 1131.57 473.145 1085.37 682.787C1078.82 723.016 1032.9 752.181 1022.94 793.389C1016.23 835.476 1061.82 896.118 1073.68 932.29C1082.26 956.617 1085.6 982.576 1091.61 1007.68C1092.7 1012.27 1093.89 1016.83 1095.21 1021.33C1095.7 1022.83 1096.32 1024.44 1097.61 1025.33L1097.8 1025.46H1097.82ZM578.789 455.881C477.124 468.151 386.935 592.442 442.229 688.319C471.847 739.145 510.842 781.331 484.614 854.442C467.124 907.423 436.299 956.036 430.71 1014.76C428.611 1035.17 426.71 1075.18 437.023 1091.92C447.037 1109.14 538.773 1134.19 572.023 1131.66C579.158 1130.33 583.144 1122.19 589.825 1118.36C615.954 1107.38 701.363 1107.69 726.244 1118.4C737.847 1125.05 742.387 1138.02 757.309 1138.8C763.267 1139.34 769.835 1137.93 774.034 1135.08C782.843 1129.69 789.34 1119.05 799.751 1115.52C820.944 1109.12 885.316 1108.53 917.928 1114.87C923.73 1116 929.177 1120.97 933.915 1123.38C957.448 1131.12 1019.71 1104.53 1042.86 1090.99C1075.37 1070.45 1067.72 1038.24 1060.84 1004.55C1041.57 913.594 952.597 831.902 1009.72 747.145C1019.69 730.875 1031.91 715.881 1042.13 699.114C1048.91 687.993 1054.83 676.092 1058.63 662.516C1094.87 521.53 926.17 412.687 801.723 469.017C790.56 474.705 776.204 483.131 764.629 489.67C757.352 493.77 751.181 497.132 747.593 498.579C741.408 501.061 734.386 496.337 728.528 492.933C685.561 460.775 632.296 448.633 579.059 455.839L578.775 455.881H578.789ZM258.772 764.763C254.871 764.068 247.679 764.692 236.005 764.479C217.209 764.721 198.343 764.025 192.683 764.763C185.137 767.302 171.235 773.359 164.583 776.367C129.347 793.176 146.908 833.561 169.987 859.477C176.115 866.584 181.903 872.514 188.626 878.088C202.556 889.28 245.707 915.665 262.488 917.58C264.886 917.991 265.709 915.438 266.021 913.324C268.801 896.245 260.956 878.457 259.949 861.407C258.971 845.051 259.354 826.752 259.992 809.9C260.417 798.141 269.482 771.898 258.9 764.792L258.786 764.749L258.772 764.763ZM1271.56 774.664C1251.8 772.579 1229.79 775.842 1209.93 774.92C1208.72 774.877 1205.76 774.65 1205.65 774.948C1205.09 783.743 1202.44 914.005 1202.11 922.403C1202.91 933.964 1223.94 923.183 1231.18 920.119C1270.42 901.962 1339.77 852.456 1326.73 803.758C1318.55 787.956 1289.18 777.246 1271.79 774.693L1271.56 774.664ZM608.592 1132.83C585.783 1138.13 581.867 1173.04 603.074 1183.25C604.975 1184.18 606.975 1184.93 608.791 1185.25C627.501 1187.93 687.32 1189.07 707.179 1185.3C736.188 1178.47 737.833 1138.78 710.867 1133.01C696.597 1130.66 630.934 1129.28 608.805 1132.77L608.606 1132.83H608.592ZM802.021 1181.98C807.482 1186.3 815.284 1186.08 821.767 1186.64C840.917 1187.88 867.784 1188.23 887.387 1187.48C897.303 1186.89 902.608 1187 909.843 1184.81C933.404 1177.49 936.496 1142.16 914.197 1133.79C911.871 1132.92 910.623 1132.58 908.764 1132.3C890.295 1130.54 825.611 1128.74 807.454 1133.53C790.63 1140.22 788.46 1170.03 801.823 1181.84L802.021 1181.99V1181.98Z" fill="black"/>
<path d="M734.046 649.822C760.515 644.97 791.24 650.02 807.851 672.447C843.484 721.088 783.197 809.192 728.882 781.573C707.747 771.02 691.902 747.543 685.958 725.641C675.149 687.114 694.469 656.999 733.762 649.878L734.06 649.822H734.046ZM743.365 666.39C699.689 671.156 693.547 708.42 715.875 740.848C724.357 753.004 736.656 764.126 751.777 765.544C778.318 767.828 801.071 733.925 802.12 706.42C804.532 675.624 769.012 664.021 743.663 666.361L743.365 666.39Z" fill="#FBB72D"/>
<ellipse cx="920" cy="651.5" rx="64" ry="37.5" fill="#FD5200" fill-opacity="0.23"/>
<ellipse cx="557" cy="651.5" rx="64" ry="37.5" fill="#FD5200" fill-opacity="0.23"/>
<path d="M626.097 627.592C602.053 646.047 602.847 597.222 581.343 606.187C572.562 610.102 572.732 623.72 565.64 629.351C560.377 633.337 552.192 633.352 546.873 630.359C531.893 620.159 543.114 594.484 554.192 584.101C589.386 547.233 657.021 599.662 626.324 627.422L626.097 627.607V627.592Z" fill="black"/>
<path d="M911.048 630.941C904.977 624.813 905.204 613.195 896.579 608.344C893.941 606.854 890.678 606.301 887.785 607.209C879.16 609.89 878.437 623.508 874.294 630.614C869.33 637.395 855.343 636.019 850.69 631.366C847.116 628.146 845.499 623.153 845.64 617.38C847.655 577.321 900.154 560.1 926.425 589.52C932.709 596.598 936.738 606.415 939.206 615.493C940.426 620.302 940.057 624.004 937.149 627.366C931.489 633.962 918.481 637.367 911.218 631.111L911.048 630.955V630.941Z" fill="black"/>
<path d="M734.046 649.822C760.515 644.97 791.24 650.02 807.851 672.447C843.484 721.088 783.197 809.192 728.882 781.573C707.747 771.02 691.902 747.543 685.958 725.641C675.149 687.114 694.469 656.999 733.762 649.878L734.06 649.822H734.046ZM743.365 666.39C699.689 671.156 693.547 708.42 715.875 740.848C724.357 753.004 736.656 764.126 751.777 765.544C778.318 767.828 801.071 733.925 802.12 706.42C804.532 675.624 769.012 664.021 743.663 666.361L743.365 666.39Z" fill="#FBB72D"/>
<ellipse cx="920" cy="651.5" rx="64" ry="37.5" fill="#FD5200" fill-opacity="0.23"/>
<ellipse cx="557" cy="651.5" rx="64" ry="37.5" fill="#FD5200" fill-opacity="0.23"/>
<path d="M626.097 627.592C602.053 646.047 602.847 597.222 581.343 606.187C572.562 610.102 572.732 623.72 565.64 629.351C560.377 633.337 552.192 633.352 546.873 630.359C531.893 620.159 543.114 594.484 554.192 584.101C589.386 547.233 657.021 599.662 626.324 627.422L626.097 627.607V627.592Z" fill="black"/>
<path d="M911.048 630.941C904.977 624.813 905.204 613.195 896.579 608.344C893.941 606.854 890.678 606.301 887.785 607.209C879.16 609.89 878.437 623.508 874.294 630.614C869.33 637.395 855.343 636.019 850.69 631.366C847.116 628.146 845.499 623.153 845.64 617.38C847.655 577.321 900.154 560.1 926.425 589.52C932.709 596.598 936.738 606.415 939.206 615.493C940.426 620.302 940.057 624.004 937.149 627.366C931.489 633.962 918.481 637.367 911.218 631.111L911.048 630.955V630.941Z" fill="black"/>
</svg>
